<svg width="91" height="91" viewBox="0 0 91 91" fill="none" xmlns="http://www.w3.org/2000/svg">
<path d="M26.0341 60.0078H29.1805V61.3906H26.0341V65H24.2001V56.4922H29.6727V57.8691H26.0341V60.0078ZM35.5659 56.3691C36.8862 56.3691 37.8959 56.7441 38.5952 57.4941C39.2944 58.2402 39.644 59.3105 39.644 60.7051C39.644 62.1309 39.2963 63.2207 38.601 63.9746C37.9057 64.7285 36.894 65.1055 35.5659 65.1055C34.2299 65.1055 33.2162 64.7305 32.5248 63.9805C31.8334 63.2266 31.4877 62.1348 31.4877 60.7051C31.4877 59.3145 31.8373 58.2441 32.5366 57.4941C33.2358 56.7441 34.2455 56.3691 35.5659 56.3691ZM35.5659 57.8105C34.8393 57.8105 34.2924 58.0547 33.9252 58.543C33.562 59.0312 33.3803 59.752 33.3803 60.7051C33.3803 61.6738 33.5639 62.4102 33.9311 62.9141C34.3022 63.418 34.8471 63.6699 35.5659 63.6699C36.2846 63.6699 36.8276 63.418 37.1948 62.9141C37.5659 62.4102 37.7514 61.6738 37.7514 60.7051C37.7514 59.7598 37.5659 59.041 37.1948 58.5488C36.8276 58.0566 36.2846 57.8105 35.5659 57.8105ZM46.041 56.3691C47.3613 56.3691 48.3711 56.7441 49.0703 57.4941C49.7695 58.2402 50.1191 59.3105 50.1191 60.7051C50.1191 62.1309 49.7715 63.2207 49.0762 63.9746C48.3809 64.7285 47.3691 65.1055 46.041 65.1055C44.7051 65.1055 43.6914 64.7305 43 63.9805C42.3086 63.2266 41.9629 62.1348 41.9629 60.7051C41.9629 59.3145 42.3125 58.2441 43.0117 57.4941C43.7109 56.7441 44.7207 56.3691 46.041 56.3691ZM46.041 57.8105C45.3145 57.8105 44.7676 58.0547 44.4004 58.543C44.0371 59.0312 43.8555 59.752 43.8555 60.7051C43.8555 61.6738 44.0391 62.4102 44.4062 62.9141C44.7773 63.418 45.3223 63.6699 46.041 63.6699C46.7598 63.6699 47.3027 63.418 47.6699 62.9141C48.041 62.4102 48.2266 61.6738 48.2266 60.7051C48.2266 59.7598 48.041 59.041 47.6699 58.5488C47.3027 58.0566 46.7598 57.8105 46.041 57.8105ZM55.8189 56.4922C57.2837 56.4922 58.3853 56.8457 59.1236 57.5527C59.8658 58.2598 60.2369 59.3105 60.2369 60.7051C60.2369 62.1113 59.8619 63.1797 59.1119 63.9102C58.3658 64.6367 57.2681 65 55.8189 65H52.9654V56.4922H55.8189ZM55.942 63.6348C56.7349 63.6348 57.3345 63.3906 57.7408 62.9023C58.147 62.4141 58.3502 61.6895 58.3502 60.7285C58.3502 59.7832 58.149 59.0703 57.7466 58.5898C57.3443 58.1094 56.7427 57.8691 55.942 57.8691H54.7759V63.6348H55.942ZM65.8019 56.3867C66.505 56.3828 67.296 56.5371 68.1749 56.8496L67.8058 58.2559C66.9894 57.9668 66.3253 57.8223 65.8136 57.8223C65.3995 57.8223 65.0734 57.9043 64.8351 58.0684C64.5968 58.2324 64.4777 58.4551 64.4777 58.7363C64.4777 59.041 64.587 59.2832 64.8058 59.4629C65.0284 59.6426 65.4327 59.8086 66.0187 59.9609C66.882 60.1836 67.4952 60.4922 67.8585 60.8867C68.2218 61.2773 68.4034 61.8164 68.4034 62.5039C68.4034 63.3359 68.1222 63.9746 67.5597 64.4199C67.0011 64.8613 66.2023 65.082 65.1632 65.082C64.3155 65.082 63.4073 64.8906 62.4386 64.5078L62.8722 63.1426C63.4073 63.334 63.8448 63.4688 64.1847 63.5469C64.5245 63.6211 64.8468 63.6582 65.1515 63.6582C65.5929 63.6582 65.9327 63.5645 66.171 63.377C66.4132 63.1855 66.5343 62.9219 66.5343 62.5859C66.5343 62.3711 66.4835 62.1914 66.382 62.0469C66.2804 61.9023 66.1085 61.7734 65.8663 61.6602C65.6241 61.543 65.2745 61.4277 64.8175 61.3145C64.0558 61.1309 63.4991 60.8457 63.1476 60.459C62.796 60.0723 62.6202 59.5625 62.6202 58.9297C62.6202 58.1211 62.8976 57.4961 63.4523 57.0547C64.0109 56.6094 64.7941 56.3867 65.8019 56.3867Z" fill="white"/>
<path d="M33.992 50.2422H30.91L30.3241 52H28.4549L31.6307 43.4688H33.2596L36.453 52H34.5838L33.992 50.2422ZM31.3846 48.8184H33.5174L32.4452 45.625L31.3846 48.8184ZM38.8098 52V43.4688H41.7981C42.8333 43.4688 43.6184 43.668 44.1536 44.0664C44.6887 44.4609 44.9563 45.041 44.9563 45.8066C44.9563 46.2246 44.8489 46.5938 44.6341 46.9141C44.4192 47.2305 44.1204 47.4629 43.7376 47.6113C44.1751 47.7207 44.5188 47.9414 44.7688 48.2734C45.0227 48.6055 45.1497 49.0117 45.1497 49.4922C45.1497 50.3125 44.888 50.9336 44.3645 51.3555C43.8411 51.7773 43.095 51.9922 42.1262 52H38.8098ZM40.5677 48.2852V50.5879H42.0735C42.4876 50.5879 42.8098 50.4902 43.0403 50.2949C43.2747 50.0957 43.3919 49.8223 43.3919 49.4746C43.3919 48.6934 42.9876 48.2969 42.179 48.2852H40.5677ZM40.5677 47.043H41.8684C42.7552 47.0273 43.1985 46.6738 43.1985 45.9824C43.1985 45.5957 43.0852 45.3184 42.8587 45.1504C42.636 44.9785 42.2825 44.8926 41.7981 44.8926H40.5677V47.043ZM48.0339 52V43.4688H51.0222C52.0573 43.4688 52.8425 43.668 53.3777 44.0664C53.9128 44.4609 54.1804 45.041 54.1804 45.8066C54.1804 46.2246 54.073 46.5938 53.8581 46.9141C53.6433 47.2305 53.3445 47.4629 52.9616 47.6113C53.3991 47.7207 53.7429 47.9414 53.9929 48.2734C54.2468 48.6055 54.3737 49.0117 54.3737 49.4922C54.3737 50.3125 54.112 50.9336 53.5886 51.3555C53.0652 51.7773 52.3191 51.9922 51.3503 52H48.0339ZM49.7917 48.2852V50.5879H51.2976C51.7116 50.5879 52.0339 50.4902 52.2644 50.2949C52.4987 50.0957 52.6159 49.8223 52.6159 49.4746C52.6159 48.6934 52.2116 48.2969 51.403 48.2852H49.7917ZM49.7917 47.043H51.0925C51.9792 47.0273 52.4226 46.6738 52.4226 45.9824C52.4226 45.5957 52.3093 45.3184 52.0827 45.1504C51.8601 44.9785 51.5066 44.8926 51.0222 44.8926H49.7917V47.043ZM59.8713 47.3125L61.6466 43.4688H63.5685L60.7677 48.9062V52H58.9806V48.9062L56.1798 43.4688H58.1076L59.8713 47.3125Z" fill="white"/>
<circle cx="45.5" cy="45.5" r="43.5" stroke="white" stroke-width="4"/>
<path d="M38.4634 13.2714C38.2847 13.4213 38.2614 13.6876 38.4113 13.8662L42.7536 19.0411C42.9232 19.2433 42.8967 19.5457 42.6946 19.7153C42.4925 19.8849 42.1901 19.8584 42.0205 19.6563L37.6782 14.4814C37.5283 14.3028 37.262 14.2795 37.0834 14.4293C36.9048 14.5792 36.8815 14.8455 37.0313 15.0242L41.3736 20.1991C41.5432 20.4012 41.5168 20.7036 41.3146 20.8732C41.1125 21.0428 40.8101 21.0163 40.6405 20.8142L36.2982 15.6393C36.1484 15.4607 35.882 15.4374 35.7034 15.5873C35.5248 15.7372 35.5015 16.0035 35.6514 16.1821L39.9936 21.357C40.1632 21.5591 40.1368 21.8615 39.9347 22.0311C39.7325 22.2007 39.4301 22.1743 39.2605 21.9722L34.9183 16.7973C34.7684 16.6186 34.5021 16.5953 34.3234 16.7452C34.1448 16.8951 34.1215 17.1614 34.2714 17.34L40.0611 24.2399C40.53 24.7987 41.3661 24.8719 41.9249 24.403C42.127 24.2334 42.4294 24.2598 42.599 24.462L45.2553 27.6277C44.7841 28.271 44.7923 29.1777 45.3273 29.8153L51.117 36.7152C52.0647 37.8447 53.7547 37.9925 54.8842 37.0448C56.0137 36.0971 56.1615 34.4071 55.2138 33.2776L49.4241 26.3777C48.8891 25.7401 47.9977 25.5746 47.2822 25.9269L44.6258 22.7612C44.4562 22.5591 44.4827 22.2567 44.6848 22.0871C45.2436 21.6182 45.3168 20.7821 44.8479 20.2233L39.0582 13.3234C38.9083 13.1448 38.642 13.1215 38.4634 13.2714Z" fill="white"/>
<path d="M55.1911 16.438C54.3646 15.7445 53.2305 15.5922 51.9977 16.0093C50.7514 16.4309 49.4583 17.4096 48.2585 18.8396C47.3897 19.8749 47.1441 21.3065 47.6173 22.5757C47.7706 22.9866 47.6812 23.4619 47.384 23.816L45.0004 26.6567C44.3308 26.3269 43.4965 26.4818 42.9958 27.0786L37.5772 33.5361C36.6903 34.5932 36.8286 36.1749 37.8857 37.0618C38.9428 37.9488 40.5244 37.8104 41.4114 36.7534L46.8299 30.2958C47.3307 29.6991 47.3383 28.8506 46.8973 28.2484L49.2809 25.4077C49.5781 25.0536 50.0306 24.883 50.4619 24.9625C51.794 25.2082 53.1612 24.7177 54.0299 23.6824C55.2298 22.2525 55.9691 20.8091 56.1679 19.5085C56.3645 18.222 56.0177 17.1315 55.1911 16.438ZM50.6053 24.1854C49.8947 24.0543 49.1552 24.328 48.6756 24.8997L47.9894 24.324C48.4691 23.7523 48.6103 22.9766 48.3578 22.2996C47.9838 21.2965 48.1777 20.1653 48.8638 19.3476C49.9706 18.0286 51.1418 17.1331 52.251 16.7579C53.2263 16.428 54.0673 16.5267 54.6832 17.0434C55.299 17.5601 55.5422 18.3713 55.3867 19.3891C55.2098 20.5465 54.5312 21.8555 53.4245 23.1744C52.7383 23.9922 51.658 24.3796 50.6053 24.1854Z" fill="white"/>
</svg>
